<svg xmlns="http://www.w3.org/2000/svg" viewBox="0 0 200 200" width="200" height="200">
  <!-- Puzzle piece -->
  <path d="M50,60 L85,60 L85,55 Q85,42 95,42 Q105,42 105,55 L105,60 L140,60 L140,85 L145,85 Q158,85 158,95 Q158,105 145,105 L140,105 L140,140 L105,140 L105,145 Q105,158 95,158 Q85,158 85,145 L85,140 L50,140 L50,105 L45,105 Q32,105 32,95 Q32,85 45,85 L50,85 Z" fill="#B29D60"/>
  <!-- Puzzle piece inner highlight -->
  <path d="M55,65 L85,65 L85,55 Q85,46 95,46 Q105,46 105,55 L105,65 L135,65 L135,85 L145,85 Q154,85 154,95 Q154,105 145,105 L135,105 L135,135 L105,135 L105,145 Q105,154 95,154 Q85,154 85,145 L85,135 L55,135 L55,105 L45,105 Q36,105 36,95 Q36,85 45,85 L55,85 Z" fill="#D0B871" opacity="0.4"/>
  <!-- Gear/cog overlay -->
  <g transform="translate(100,100)">
    <path d="M0,-22 L5,-20 L7,-25 L12,-22 L11,-17 L16,-16 L17,-21 L22,-17 L19,-12 L23,-9 L20,-5 L22,0 L17,0 L17,5 L22,5 L20,10 L23,14 L19,17 L16,21 L11,22 L12,27 L7,30 L5,25 L0,27 L-5,25 L-7,30 L-12,27 L-11,22 L-16,21 L-19,17 L-23,14 L-20,10 L-17,5 L-22,5 L-22,0 L-17,0 L-20,-5 L-23,-9 L-19,-12 L-22,-17 L-17,-21 L-16,-16 L-11,-17 L-12,-22 L-7,-25 L-5,-20 Z" fill="#1A1A1A" opacity="0.7"/>
    <circle cx="0" cy="0" r="10" fill="#1A1A1A"/>
    <circle cx="0" cy="0" r="6" fill="#B29D60" opacity="0.5"/>
    <circle cx="0" cy="0" r="3" fill="#1A1A1A"/>
  </g>
</svg>