<svg xmlns="http://www.w3.org/2000/svg" viewBox="0 0 200 200" width="200" height="200">
  <!-- Speech bubble -->
  <path d="M30,40 L170,40 Q180,40 180,50 L180,120 Q180,130 170,130 L110,130 L85,160 L90,130 L30,130 Q20,130 20,120 L20,50 Q20,40 30,40 Z" fill="#F94238"/>
  <!-- Inner bubble border -->
  <path d="M33,44 L167,44 Q174,44 174,51 L174,117 Q174,124 167,124 L107,124 L86,150 L90,124 L33,124 Q26,124 26,117 L26,51 Q26,44 33,44 Z" fill="none" stroke="#FFFFFF" stroke-width="1" opacity="0.3"/>
  <!-- Circuit/AI pattern -->
  <!-- Central node -->
  <circle cx="100" cy="82" r="8" fill="none" stroke="#FFFFFF" stroke-width="2"/>
  <circle cx="100" cy="82" r="3" fill="#FFFFFF"/>
  <!-- Top node -->
  <line x1="100" y1="74" x2="100" y2="58" stroke="#FFFFFF" stroke-width="1.5"/>
  <circle cx="100" cy="56" r="3" fill="#FFFFFF" opacity="0.8"/>
  <!-- Right node -->
  <line x1="107" y1="78" x2="130" y2="68" stroke="#FFFFFF" stroke-width="1.5"/>
  <circle cx="132" cy="67" r="3" fill="#FFFFFF" opacity="0.8"/>
  <!-- Left node -->
  <line x1="93" y1="78" x2="70" y2="68" stroke="#FFFFFF" stroke-width="1.5"/>
  <circle cx="68" cy="67" r="3" fill="#FFFFFF" opacity="0.8"/>
  <!-- Bottom right -->
  <line x1="107" y1="86" x2="135" y2="100" stroke="#FFFFFF" stroke-width="1.5"/>
  <circle cx="137" cy="101" r="3" fill="#FFFFFF" opacity="0.8"/>
  <!-- Bottom left -->
  <line x1="93" y1="86" x2="65" y2="100" stroke="#FFFFFF" stroke-width="1.5"/>
  <circle cx="63" cy="101" r="3" fill="#FFFFFF" opacity="0.8"/>
  <!-- Horizontal connections -->
  <line x1="71" y1="67" x2="97" y2="56" stroke="#FFFFFF" stroke-width="1" opacity="0.4"/>
  <line x1="129" y1="67" x2="103" y2="56" stroke="#FFFFFF" stroke-width="1" opacity="0.4"/>
  <line x1="66" y1="101" x2="93" y2="86" stroke="#FFFFFF" stroke-width="1" opacity="0"/>
  <line x1="134" y1="101" x2="107" y2="86" stroke="#FFFFFF" stroke-width="1" opacity="0"/>
</svg>