<?xml version="1.0" encoding="UTF-8"?>
<svg xmlns="http://www.w3.org/2000/svg" xmlns:xlink="http://www.w3.org/1999/xlink" width="100pt" height="19.09pt" viewBox="0 0 100 19.09" version="1.1">
<defs>
<clipPath id="clip1">
  <path d="M 0 0 L 20 0 L 20 19.089844 L 0 19.089844 Z M 0 0 "/>
</clipPath>
</defs>
<g id="surface1">
<g clip-path="url(#clip1)" clip-rule="nonzero">
<path style=" stroke:none;fill-rule:nonzero;fill:rgb(78.799438%,12.5%,14.898682%);fill-opacity:1;" d="M 3.257813 0 L 15.828125 0 C 16.65625 0.0820313 17.453125 0.449219 18.039063 1.042969 C 18.582031 1.585938 18.945313 2.304688 19.050781 3.0625 C 19.105469 3.457031 19.085938 3.851563 19.089844 4.246094 C 19.089844 6.003906 19.089844 7.761719 19.089844 9.515625 C 19.09375 10.085938 18.804688 10.648438 18.328125 10.960938 C 17.738281 11.363281 16.898438 11.332031 16.335938 10.890625 C 16.027344 10.65625 15.804688 10.308594 15.722656 9.929688 C 15.644531 9.597656 15.675781 9.257813 15.640625 8.921875 C 15.492188 7.390625 14.730469 5.929688 13.566406 4.921875 C 12.460938 3.945313 10.992188 3.394531 9.519531 3.410156 C 8.242188 3.40625 6.976563 3.824219 5.945313 4.574219 C 4.722656 5.453125 3.84375 6.800781 3.539063 8.277344 C 3.320313 9.320313 3.375 10.421875 3.707031 11.433594 C 4.167969 12.855469 5.167969 14.09375 6.460938 14.839844 C 7.226563 15.289063 8.089844 15.5625 8.96875 15.644531 C 9.289063 15.679688 9.613281 15.648438 9.925781 15.722656 C 10.363281 15.816406 10.757813 16.101563 10.992188 16.480469 C 11.269531 16.929688 11.324219 17.511719 11.128906 18.007813 C 10.882813 18.660156 10.207031 19.105469 9.515625 19.089844 C 7.558594 19.09375 5.605469 19.089844 3.648438 19.089844 C 3.105469 19.089844 2.5625 18.992188 2.074219 18.757813 C 0.921875 18.238281 0.113281 17.082031 0 15.828125 L 0 3.257813 C 0.0820313 2.445313 0.429688 1.652344 1.011719 1.070313 C 1.597656 0.457031 2.414063 0.0820313 3.257813 0 "/>
</g>
<path style=" stroke:none;fill-rule:nonzero;fill:rgb(78.799438%,12.5%,14.898682%);fill-opacity:1;" d="M 8.9375 5.476563 C 9.761719 5.355469 10.625 5.484375 11.371094 5.863281 C 12.277344 6.304688 13.003906 7.101563 13.367188 8.042969 C 13.71875 8.9375 13.738281 9.957031 13.425781 10.867188 C 13.121094 11.773438 12.484375 12.5625 11.667969 13.054688 C 10.839844 13.566406 9.820313 13.753906 8.859375 13.589844 C 7.855469 13.429688 6.921875 12.871094 6.300781 12.066406 C 5.8125 11.441406 5.503906 10.671875 5.445313 9.878906 C 5.355469 8.859375 5.664063 7.816406 6.296875 7.011719 C 6.933594 6.183594 7.902344 5.621094 8.9375 5.476563 "/>
<path style=" stroke:none;fill-rule:nonzero;fill:rgb(78.799438%,12.5%,14.898682%);fill-opacity:1;" d="M 14.148438 12.839844 C 14.699219 12.765625 15.277344 12.964844 15.660156 13.363281 C 16.242188 13.949219 16.324219 14.941406 15.847656 15.617188 C 15.410156 16.273438 14.507813 16.558594 13.769531 16.273438 C 13.203125 16.070313 12.757813 15.558594 12.640625 14.96875 C 12.558594 14.539063 12.621094 14.070313 12.851563 13.691406 C 13.125 13.230469 13.617188 12.90625 14.148438 12.839844 "/>
<path style=" stroke:none;fill-rule:nonzero;fill:rgb(78.799438%,12.5%,14.898682%);fill-opacity:1;" d="M 16.777344 16.070313 C 17.140625 15.984375 17.539063 16.054688 17.835938 16.277344 C 18.230469 16.558594 18.433594 17.078125 18.332031 17.550781 C 18.269531 17.902344 18.046875 18.21875 17.742188 18.398438 C 17.324219 18.652344 16.757813 18.636719 16.359375 18.355469 C 15.949219 18.078125 15.734375 17.546875 15.835938 17.0625 C 15.917969 16.585938 16.304688 16.175781 16.777344 16.070313 "/>
<path style=" stroke:none;fill-rule:nonzero;fill:rgb(43.099976%,43.499756%,44.699097%);fill-opacity:1;" d="M 98.769531 4.210938 C 98.332031 4.289063 97.992188 4.71875 98.011719 5.160156 C 98.011719 5.496094 98.210938 5.8125 98.496094 5.972656 C 98.714844 6.097656 98.988281 6.117188 99.222656 6.042969 C 99.609375 5.914063 99.886719 5.511719 99.859375 5.101563 C 99.851563 4.761719 99.636719 4.4375 99.335938 4.285156 C 99.160156 4.199219 98.957031 4.175781 98.769531 4.210938 Z M 98.738281 4.097656 C 99.019531 4.046875 99.324219 4.101563 99.554688 4.273438 C 99.722656 4.402344 99.863281 4.570313 99.9375 4.769531 C 100.046875 5.085938 100.015625 5.457031 99.820313 5.734375 C 99.703125 5.90625 99.535156 6.050781 99.339844 6.128906 C 99.144531 6.210938 98.925781 6.21875 98.71875 6.183594 C 98.238281 6.09375 97.851563 5.628906 97.871094 5.132813 C 97.863281 4.636719 98.253906 4.175781 98.738281 4.097656 "/>
<path style=" stroke:none;fill-rule:nonzero;fill:rgb(43.099976%,43.499756%,44.699097%);fill-opacity:1;" d="M 24.351563 5.496094 C 24.992188 5.21875 25.699219 5.144531 26.386719 5.09375 C 27.257813 5.046875 28.136719 5.027344 28.992188 5.199219 C 29.484375 5.300781 30.011719 5.503906 30.273438 5.964844 C 30.648438 6.636719 30.664063 7.433594 30.667969 8.183594 C 30.085938 8.183594 29.503906 8.183594 28.925781 8.183594 C 28.925781 7.773438 28.945313 7.332031 28.734375 6.964844 C 28.59375 6.722656 28.296875 6.660156 28.042969 6.613281 C 27.550781 6.542969 27.046875 6.535156 26.550781 6.5625 C 26.140625 6.589844 25.710938 6.617188 25.332031 6.796875 C 25.125 6.894531 25.027344 7.121094 24.980469 7.332031 C 24.855469 7.855469 24.84375 8.398438 24.828125 8.933594 C 24.824219 9.851563 24.824219 10.773438 24.9375 11.6875 C 24.984375 11.949219 25.003906 12.238281 25.183594 12.449219 C 25.4375 12.683594 25.792969 12.742188 26.121094 12.789063 C 26.742188 12.855469 27.371094 12.855469 27.988281 12.777344 C 28.289063 12.722656 28.644531 12.660156 28.816406 12.375 C 29.058594 11.957031 29.019531 11.449219 29.007813 10.980469 C 29.585938 10.984375 30.164063 10.984375 30.742188 10.980469 C 30.761719 11.648438 30.746094 12.332031 30.546875 12.972656 C 30.445313 13.3125 30.261719 13.644531 29.957031 13.839844 C 29.628906 14.046875 29.242188 14.128906 28.867188 14.199219 C 28.101563 14.324219 27.324219 14.332031 26.550781 14.316406 C 25.886719 14.292969 25.210938 14.242188 24.574219 14.035156 C 24.183594 13.898438 23.777344 13.6875 23.585938 13.296875 C 23.386719 12.890625 23.300781 12.4375 23.234375 11.992188 C 23.101563 11.066406 23.074219 10.132813 23.054688 9.203125 C 23.050781 8.285156 23.050781 7.335938 23.402344 6.476563 C 23.574219 6.039063 23.914063 5.671875 24.351563 5.496094 "/>
<path style=" stroke:none;fill-rule:nonzero;fill:rgb(43.099976%,43.499756%,44.699097%);fill-opacity:1;" d="M 44.835938 5.417969 C 45.402344 5.21875 46 5.144531 46.597656 5.097656 C 47.34375 5.050781 48.097656 5.035156 48.847656 5.125 C 49.457031 5.210938 50.164063 5.351563 50.53125 5.90625 C 50.953125 6.582031 50.945313 7.414063 50.96875 8.183594 C 50.386719 8.183594 49.804688 8.183594 49.226563 8.183594 C 49.222656 7.789063 49.238281 7.371094 49.054688 7.007813 C 48.964844 6.8125 48.757813 6.707031 48.558594 6.660156 C 48.128906 6.554688 47.683594 6.550781 47.246094 6.546875 C 46.730469 6.566406 46.199219 6.574219 45.710938 6.757813 C 45.511719 6.832031 45.363281 7.003906 45.308594 7.207031 C 45.164063 7.695313 45.148438 8.210938 45.125 8.71875 C 45.121094 9.628906 45.109375 10.542969 45.203125 11.453125 C 45.238281 11.738281 45.265625 12.03125 45.378906 12.296875 C 45.492188 12.546875 45.769531 12.644531 46.015625 12.714844 C 46.554688 12.847656 47.117188 12.839844 47.671875 12.828125 C 48.066406 12.804688 48.472656 12.789063 48.839844 12.625 C 49.121094 12.492188 49.230469 12.171875 49.277344 11.886719 C 49.332031 11.585938 49.300781 11.28125 49.308594 10.980469 C 49.886719 10.988281 50.46875 10.984375 51.046875 10.984375 C 51.050781 11.605469 51.042969 12.238281 50.882813 12.84375 C 50.78125 13.207031 50.617188 13.585938 50.296875 13.808594 C 49.96875 14.035156 49.566406 14.125 49.175781 14.195313 C 48.398438 14.324219 47.605469 14.332031 46.816406 14.316406 C 46.136719 14.289063 45.445313 14.238281 44.796875 14.007813 C 44.433594 13.875 44.066406 13.664063 43.886719 13.308594 C 43.671875 12.878906 43.589844 12.398438 43.519531 11.929688 C 43.378906 10.867188 43.347656 9.792969 43.355469 8.71875 C 43.347656 8.167969 43.386719 7.613281 43.507813 7.070313 C 43.601563 6.660156 43.753906 6.253906 44.03125 5.929688 C 44.238281 5.683594 44.535156 5.53125 44.835938 5.417969 "/>
<path style=" stroke:none;fill-rule:nonzero;fill:rgb(43.099976%,43.499756%,44.699097%);fill-opacity:1;" d="M 32.398438 5.140625 C 32.976563 5.140625 33.554688 5.144531 34.132813 5.140625 C 34.140625 7.652344 34.136719 10.167969 34.136719 12.683594 C 35.550781 12.691406 36.96875 12.683594 38.386719 12.6875 C 38.386719 13.203125 38.386719 13.722656 38.386719 14.242188 C 36.390625 14.242188 34.394531 14.242188 32.394531 14.242188 C 32.398438 11.207031 32.394531 8.171875 32.398438 5.140625 "/>
<path style=" stroke:none;fill-rule:nonzero;fill:rgb(43.099976%,43.499756%,44.699097%);fill-opacity:1;" d="M 39.804688 5.140625 C 40.386719 5.140625 40.96875 5.140625 41.546875 5.144531 C 41.546875 8.175781 41.546875 11.207031 41.546875 14.242188 C 40.96875 14.242188 40.386719 14.242188 39.804688 14.242188 C 39.804688 11.207031 39.804688 8.175781 39.804688 5.140625 "/>
<path style=" stroke:none;fill-rule:nonzero;fill:rgb(43.099976%,43.499756%,44.699097%);fill-opacity:1;" d="M 52.6875 5.136719 C 53.265625 5.144531 53.84375 5.140625 54.421875 5.140625 C 54.425781 6.375 54.421875 7.609375 54.425781 8.839844 C 54.691406 8.839844 54.960938 8.839844 55.226563 8.839844 C 56.234375 7.609375 57.238281 6.375 58.246094 5.144531 C 58.96875 5.140625 59.691406 5.140625 60.410156 5.144531 C 59.195313 6.621094 57.960938 8.085938 56.742188 9.5625 C 58.097656 11.121094 59.445313 12.679688 60.796875 14.242188 C 60.050781 14.242188 59.308594 14.242188 58.5625 14.238281 C 57.453125 12.925781 56.34375 11.613281 55.234375 10.300781 C 54.964844 10.300781 54.695313 10.300781 54.421875 10.300781 C 54.421875 11.613281 54.421875 12.925781 54.421875 14.242188 C 53.84375 14.242188 53.261719 14.242188 52.679688 14.242188 C 52.683594 11.207031 52.671875 8.171875 52.6875 5.136719 "/>
<path style=" stroke:none;fill-rule:nonzero;fill:rgb(43.099976%,43.499756%,44.699097%);fill-opacity:1;" d="M 79.925781 5.140625 C 80.480469 5.144531 81.035156 5.132813 81.589844 5.144531 C 81.765625 5.347656 81.878906 5.605469 82.03125 5.828125 C 83.257813 7.832031 84.496094 9.832031 85.714844 11.839844 C 86.042969 12.355469 86.339844 12.890625 86.675781 13.402344 C 86.644531 12.054688 86.667969 10.710938 86.660156 9.363281 C 86.65625 7.960938 86.667969 6.554688 86.65625 5.152344 C 87 5.128906 87.347656 5.144531 87.695313 5.140625 C 87.699219 8.171875 87.695313 11.207031 87.699219 14.238281 C 87.132813 14.242188 86.566406 14.238281 86 14.242188 C 84.804688 12.304688 83.613281 10.367188 82.417969 8.433594 C 81.917969 7.640625 81.453125 6.824219 80.949219 6.039063 C 80.964844 8.773438 80.949219 11.507813 80.953125 14.242188 C 80.609375 14.242188 80.265625 14.242188 79.921875 14.242188 C 79.921875 11.207031 79.914063 8.171875 79.925781 5.140625 "/>
<path style=" stroke:none;fill-rule:nonzero;fill:rgb(43.099976%,43.499756%,44.699097%);fill-opacity:1;" d="M 89.96875 5.140625 C 90.3125 5.136719 90.652344 5.144531 90.996094 5.136719 C 91.015625 6.453125 91.003906 7.773438 91 9.09375 C 91.296875 9.121094 91.59375 9.097656 91.890625 9.109375 C 93.128906 7.785156 94.375 6.472656 95.605469 5.144531 C 96.054688 5.136719 96.507813 5.140625 96.957031 5.140625 C 95.59375 6.617188 94.191406 8.0625 92.816406 9.53125 C 93.164063 9.910156 93.535156 10.261719 93.898438 10.628906 C 95.085938 11.835938 96.28125 13.03125 97.46875 14.238281 C 96.988281 14.242188 96.507813 14.242188 96.03125 14.238281 C 94.65625 12.816406 93.269531 11.410156 91.886719 9.996094 C 91.59375 9.992188 91.300781 9.996094 91.007813 9.996094 C 91.007813 11.40625 91 12.820313 91.007813 14.234375 C 90.660156 14.25 90.316406 14.238281 89.96875 14.238281 C 89.972656 11.207031 89.96875 8.171875 89.96875 5.140625 "/>
<path style=" stroke:none;fill-rule:nonzero;fill:rgb(43.099976%,43.499756%,44.699097%);fill-opacity:1;" d="M 98.621094 4.679688 C 98.621094 4.824219 98.621094 4.972656 98.621094 5.117188 C 98.773438 5.113281 98.921875 5.121094 99.074219 5.113281 C 99.167969 5.109375 99.253906 5.027344 99.25 4.929688 C 99.253906 4.839844 99.253906 4.695313 99.132813 4.6875 C 98.964844 4.667969 98.792969 4.683594 98.621094 4.679688 Z M 98.460938 4.53125 C 98.671875 4.535156 98.890625 4.523438 99.101563 4.535156 C 99.222656 4.539063 99.351563 4.605469 99.390625 4.726563 C 99.433594 4.882813 99.429688 5.09375 99.28125 5.195313 C 99.464844 5.308594 99.378906 5.546875 99.398438 5.726563 C 99.34375 5.726563 99.289063 5.726563 99.238281 5.726563 C 99.230469 5.617188 99.242188 5.507813 99.230469 5.398438 C 99.226563 5.332031 99.167969 5.273438 99.101563 5.269531 C 98.945313 5.253906 98.78125 5.269531 98.621094 5.265625 C 98.621094 5.417969 98.621094 5.570313 98.621094 5.726563 C 98.566406 5.726563 98.515625 5.726563 98.460938 5.726563 C 98.460938 5.328125 98.460938 4.929688 98.460938 4.53125 "/>
<path style=" stroke:none;fill-rule:nonzero;fill:rgb(43.099976%,43.499756%,44.699097%);fill-opacity:1;" d="M 72.367188 11.515625 C 73.691406 11.523438 75.011719 11.515625 76.335938 11.519531 C 75.679688 9.6875 75.003906 7.859375 74.339844 6.027344 C 73.671875 7.851563 73.019531 9.683594 72.367188 11.515625 Z M 73.585938 5.148438 C 74.070313 5.132813 74.554688 5.144531 75.042969 5.140625 C 76.175781 8.171875 77.308594 11.207031 78.441406 14.242188 C 78.078125 14.242188 77.71875 14.238281 77.351563 14.242188 C 77.113281 13.601563 76.878906 12.960938 76.648438 12.316406 C 75.121094 12.308594 73.59375 12.3125 72.066406 12.3125 C 71.828125 12.953125 71.601563 13.597656 71.363281 14.242188 C 70.996094 14.238281 70.628906 14.242188 70.261719 14.242188 C 71.367188 11.207031 72.484375 8.179688 73.585938 5.148438 "/>
<path style=" stroke:none;fill-rule:nonzero;fill:rgb(43.099976%,43.499756%,44.699097%);fill-opacity:1;" d="M 63.144531 10.015625 C 63.121094 11.128906 63.140625 12.242188 63.136719 13.355469 C 64.179688 13.355469 65.222656 13.359375 66.269531 13.355469 C 66.738281 13.332031 67.234375 13.335938 67.660156 13.113281 C 68.066406 12.851563 68.085938 12.316406 68.113281 11.882813 C 68.105469 11.421875 68.113281 10.933594 67.910156 10.507813 C 67.828125 10.300781 67.613281 10.203125 67.410156 10.15625 C 66.949219 10.046875 66.472656 10.039063 66 10.023438 C 65.046875 10.015625 64.09375 10.027344 63.144531 10.015625 Z M 63.136719 6.027344 C 63.132813 7.035156 63.136719 8.039063 63.136719 9.046875 C 63.097656 9.171875 63.253906 9.125 63.320313 9.136719 C 63.894531 9.132813 64.464844 9.136719 65.035156 9.136719 C 65.746094 9.125 66.476563 9.1875 67.167969 8.984375 C 67.414063 8.917969 67.609375 8.726563 67.691406 8.488281 C 67.855469 8.011719 67.851563 7.492188 67.800781 7 C 67.765625 6.6875 67.660156 6.316406 67.335938 6.195313 C 66.84375 6.007813 66.304688 6.03125 65.785156 6.027344 C 64.902344 6.027344 64.019531 6.027344 63.136719 6.027344 Z M 62.097656 5.140625 C 63.097656 5.140625 64.09375 5.140625 65.089844 5.140625 C 65.816406 5.148438 66.542969 5.109375 67.261719 5.214844 C 67.605469 5.269531 67.96875 5.347656 68.257813 5.558594 C 68.582031 5.816406 68.695313 6.242188 68.761719 6.632813 C 68.832031 7.15625 68.867188 7.695313 68.761719 8.21875 C 68.675781 8.589844 68.492188 8.949219 68.191406 9.191406 C 68.035156 9.316406 67.847656 9.394531 67.671875 9.484375 C 68.089844 9.578125 68.488281 9.804688 68.730469 10.167969 C 69.054688 10.632813 69.117188 11.226563 69.105469 11.777344 C 69.085938 12.367188 69.019531 12.992188 68.675781 13.488281 C 68.390625 13.90625 67.882813 14.101563 67.402344 14.179688 C 66.832031 14.277344 66.253906 14.226563 65.679688 14.242188 C 64.484375 14.238281 63.292969 14.242188 62.097656 14.238281 C 62.101563 11.207031 62.097656 8.175781 62.097656 5.140625 "/>
</g>
</svg>
