<?xml version="1.0" encoding="UTF-8"?>
<svg xmlns="http://www.w3.org/2000/svg" viewBox="-5 -5 70 110">
  <!-- R — Maelstrom Alphabet v6 skeleton -->
  <!-- Coordinate system: 0-100 normalized, Y-flipped for SVG -->

  <!-- Grid lines -->
  <line x1="0" y1="0" x2="60" y2="0" stroke="#333" stroke-width="0.3" stroke-dasharray="2,2"/>
  <line x1="0" y1="100" x2="60" y2="100" stroke="#333" stroke-width="0.3" stroke-dasharray="2,2"/>
  <line x1="0" y1="50.0" x2="60" y2="50.0" stroke="#333" stroke-width="0.3" stroke-dasharray="1,3"/>
  <line x1="0" y1="0" x2="0" y2="100" stroke="#333" stroke-width="0.3"/>
  <line x1="60" y1="0" x2="60" y2="100" stroke="#333" stroke-width="0.3"/>

  <!-- Glyph path -->
  <path d="M 0.0 100.0 L 0.0 0.0 L 60.0 0.0 L 60.0 50.0 L 43.0 100.0 Z M 28.0 35.0 L 45.0 35.0 L 45.0 15.0 L 28.0 15.0 Z M 28.0 55.0 L 33.0 55.0 L 28.0 95.0 Z" fill="#e8e0d4" fill-rule="evenodd" stroke="none"/>

  <!-- Point markers -->
  <circle cx="0.0" cy="100.0" r="1.2" fill="#f94238" opacity="0.7"/>
  <circle cx="0.0" cy="0.0" r="1.2" fill="#f94238" opacity="0.7"/>
  <circle cx="60.0" cy="0.0" r="1.2" fill="#f94238" opacity="0.7"/>
  <circle cx="60.0" cy="50.0" r="1.2" fill="#f94238" opacity="0.7"/>
  <circle cx="43.0" cy="100.0" r="1.2" fill="#f94238" opacity="0.7"/>
  <circle cx="28.0" cy="35.0" r="1.0" fill="#4a9ef9" opacity="0.7"/>
  <circle cx="45.0" cy="35.0" r="1.0" fill="#4a9ef9" opacity="0.7"/>
  <circle cx="45.0" cy="15.0" r="1.0" fill="#4a9ef9" opacity="0.7"/>
  <circle cx="28.0" cy="15.0" r="1.0" fill="#4a9ef9" opacity="0.7"/>
  <circle cx="28.0" cy="55.0" r="1.0" fill="#4a9ef9" opacity="0.7"/>
  <circle cx="33.0" cy="55.0" r="1.0" fill="#4a9ef9" opacity="0.7"/>
  <circle cx="28.0" cy="95.0" r="1.0" fill="#4a9ef9" opacity="0.7"/>
</svg>
